<svg version="1.1" id="Layer_1" xmlns="http://www.w3.org/2000/svg" x="0" y="0" viewBox="0 0 462.3 72" xml:space="preserve"><style>.st0{fill:#59595b}</style><path class="st0" d="M112.8 1h15.9c3.4 0 6.2.4 8.2 1.3 2.1.8 3.5 2 4.5 3.6.9 1.5 1.4 3.3 1.4 5.4 0 1.9-.4 3.5-1.3 5-.8 1.4-2.2 2.6-4.1 3.6 2.4 1 4 2.3 5 3.9s1.5 3.5 1.5 5.6c0 3.5-1.2 6.3-3.6 8.5-2.4 2.1-6.2 3.2-11.4 3.2h-16.2V1h.1zm15.3 16.1c2.2 0 3.8-.4 4.8-1.2s1.5-2 1.5-3.6-.5-2.8-1.5-3.6c-1-.7-2.8-1.1-5.2-1.1h-6.6v9.5h7zm.2 17.3c2.7 0 4.6-.5 5.6-1.4 1-1 1.5-2.3 1.5-4.1 0-1.9-.5-3.3-1.6-4.2s-2.9-1.4-5.4-1.4H121v11h7.3v.1zM158.9 1h10.4l14.2 40h-9.1l-3-8.8h-15l-3 8.8h-8.8l14.3-40zm10.3 24l-5.4-16.3-5.3 16.3h10.7zM213.2 38.6c-2.7 2.3-6.8 3.4-12.1 3.4-5.1 0-9.1-1.1-12.1-3.2-3-2.2-4.6-5.5-5-10h8.7c.3 2.2 1.2 3.8 2.6 4.8 1.4 1 3.4 1.5 6.1 1.5 2.6 0 4.4-.5 5.4-1.5s1.5-2.2 1.5-3.7c0-1.2-.4-2.2-1.1-3.1-.7-.9-2.2-1.5-4.4-1.8l-5.3-1c-4.3-.8-7.5-2.1-9.6-3.9-2.1-1.8-3.2-4.5-3.2-8 0-2.6.7-4.8 2-6.6 1.3-1.8 3.2-3.1 5.6-4.1 2.4-.9 5.2-1.4 8.3-1.4 3.5 0 6.3.5 8.5 1.5s3.9 2.3 5.1 4c1.2 1.7 1.9 3.7 2.2 5.9l-8.5 1.1c-.5-1.9-1.3-3.2-2.3-4.1-1.1-.9-2.8-1.3-5.2-1.3-2.5 0-4.4.4-5.4 1.3-1.1.9-1.6 2-1.6 3.3s.4 2.4 1.2 3.1c.8.7 2.3 1.3 4.3 1.7l5.5 1.1c4.4.9 7.7 2.2 9.7 4.1 2 1.9 3 4.5 3 8 .1 3.5-1.2 6.6-3.9 8.9zM221.7 1h8.8v16.6L245.3 1h9.5l-13.4 14.9L256.2 41h-9.7l-11-18.8-5 5.5V41h-8.8V1zM259.6 1h27.7v7.1h-19V17h17.9v7.1h-17.9v9.7h20.2l-.9 7.1h-28V1zM303.7 8.7h-12.2V1h33.3v7.7h-12.3V41h-8.8V8.7zM328.8 1h15.9c3.4 0 6.2.4 8.2 1.3 2.1.8 3.5 2 4.5 3.6.9 1.5 1.4 3.3 1.4 5.4 0 1.9-.4 3.5-1.3 5-.8 1.4-2.2 2.6-4.1 3.6 2.4 1 4 2.3 5 3.9s1.5 3.5 1.5 5.6c0 3.5-1.2 6.3-3.6 8.5-2.4 2.1-6.2 3.2-11.4 3.2h-16.2l.1-40.1zm15.3 16.1c2.2 0 3.8-.4 4.8-1.2s1.5-2 1.5-3.6-.5-2.8-1.5-3.6c-1-.7-2.8-1.1-5.2-1.1h-6.6v9.5h7zm.2 17.3c2.7 0 4.6-.5 5.6-1.4 1-1 1.5-2.3 1.5-4.1 0-1.9-.5-3.3-1.6-4.2-1.1-.9-2.9-1.4-5.4-1.4H337v11h7.3v.1zM374.9 1h10.4l14.2 40h-9.1l-3-8.8h-15l-3 8.8h-8.8l14.3-40zm10.3 24l-5.4-16.3-5.3 16.3h10.7zM402.6 1h8.8v32.3h18.8l-1 7.7h-26.7l.1-40zM434.7 1h8.8v32.3h18.8l-1 7.7h-26.7V1h.1z"/><g><path class="st0" d="M112.8 47.6h12.8c7.1 0 10.6 2.4 10.6 7.1 0 3.2-1.8 5.4-5.4 6.4l6.9 10.3h-4.4l-6.3-9.6h-10.4v9.6h-3.7V47.6h-.1zm12.5 11.3c4.7 0 7-1.4 7-4.2 0-1.5-.5-2.5-1.6-3.2s-2.8-1-5.3-1h-8.8v8.4h8.7zM142 47.6h21.8v2.9h-18v7.2h17.1v2.9h-17.1v7.9h18.8l-.7 2.9H142V47.6zM169.8 47.6h20.7v2.9h-16.9V58h16.1v2.9h-16.1v10.5h-3.8V47.6zM195.1 47.6h21.8v2.9h-18v7.2H216v2.9h-17.1v7.9h18.8l-.7 2.9h-21.9V47.6zM222.4 47.6h12.8c7.1 0 10.6 2.4 10.6 7.1 0 3.2-1.8 5.4-5.4 6.4l6.9 10.3h-4.4l-6.3-9.6h-10.4v9.6h-3.7l-.1-23.8zm12.4 11.3c4.7 0 7-1.4 7-4.2 0-1.5-.5-2.5-1.6-3.2s-2.8-1-5.3-1h-8.8v8.4h8.7zM251.2 47.6H273v2.9h-18v7.2h17.1v2.9H255v7.9h18.8l-.7 2.9h-21.9V47.6zM278.6 47.6h3.7l18.2 19.1V47.6h3.7v23.8h-3.7l-18.2-19.1v19.1h-3.7V47.6zM336.1 54.8l-3.7.5c-.8-1.9-1.9-3.3-3.4-4.1-1.5-.8-3.5-1.3-6.2-1.3-2.2 0-4.1.4-5.7 1.2-1.6.8-2.8 1.9-3.7 3.3s-1.3 3.1-1.3 5.1.4 3.7 1.3 5.1c.9 1.4 2.1 2.5 3.7 3.3 1.6.8 3.5 1.1 5.8 1.1 2.8 0 5-.4 6.6-1.3 1.6-.9 2.6-2.3 3.1-4.2h3.9c-.5 2.7-2 4.8-4.3 6.3-2.3 1.4-5.4 2.2-9.3 2.2-3 0-5.6-.5-7.8-1.5s-3.9-2.5-5.1-4.3c-1.2-1.9-1.8-4.1-1.8-6.6s.6-4.7 1.8-6.6 2.9-3.3 5.1-4.4c2.2-1 4.8-1.6 7.7-1.6 7.2 0 11.6 2.6 13.3 7.8zM340.7 47.6h21.8v2.9h-18v7.2h17.1v2.9h-17.1v7.9h18.8l-.7 2.9h-21.9V47.6z"/></g><g><path d="M102.3 0v72s-14.9-10-37-10C47.5 62 10.1 65 0 16.1c0 0 6.8 5.9 20.7 5.9 22.7 0 30-22 81.6-22z" fill="#fff"/><path d="M96.7 55.2c-8.8-1.7-16.3-5.9-21.1-12-2.8-3.6-4.3-7.5-4.5-11.5-.1-1.1.8-1.5 1.7-1.5 15.1.1 25 1.7 29.6 3.2v-4.2c-9-2.7-24.3-3-29.1-3-.8 0-1.5-.7-1-1.8 1.5-3.3 3.6-6.5 6.9-9 3.8-3 8.6-4.9 13.8-5.8 4.2 3.4 7.4 7.9 9.4 13V0C91.9 0 83.2.9 75.8 2.4c4.6.5 8.9 1.9 12.7 4.1-4.4 1.2-8.4 3.1-11.7 5.7-4.9 3.8-8 8.6-9.2 14-1.5 0-3.2.1-5 .2C63.6 15.2 66.7 7 70 3.7c-2.2.6-4.2 1.2-6.2 1.8-2.8 5.4-4.6 13.1-5.3 21.2-1 .1-2.1.2-3.2.3-.9-5.3-3.3-10-7.1-13.5.7-.8 1.4-1.6 2.2-2.3C39.5 16.6 32 22 20.8 22 6.8 22 .1 16.1.1 16.1 8.7 58 37.5 61.8 56.7 62c-4.1-2.3-7.6-5.5-10.3-9.4 5.8-5.8 9.4-13.6 9.3-21.6.8-.1 1.7-.2 2.6-.3 0 1.2-.1 2.3-.1 3.5 0 10.2 1.8 20.7 5.2 27.8H68c-3.2-5.3-5.7-15.3-5.7-27.8 0-1.3 0-2.6.1-3.8 1.5-.1 3.1-.1 4.7-.2-.1 5.4 1.7 10.6 5.4 15.4 4.8 6.2 12.3 10.8 20.9 13-2.9 2.4-6.1 4.4-9.7 5.7 11.7 3 18.8 7.8 18.8 7.8V45.9c-1.5 3.4-3.4 6.6-5.8 9.3zM45.8 16.6c2.5 2.4 4.3 5.5 5.2 8.9.2 1-.1 1.9-1 2.1-3.5.5-6.7 1.3-9.2 2.3.7-4.8 2.5-9.3 5-13.3zm-1.5 32.6c-2.3-4.4-3.7-9.4-3.7-14.8 1.1-.8 4.5-2 10.1-2.9.8-.1 1 .3 1 1-.2 6.2-3 12.1-7.4 16.7z" fill="#f79420"/></g></svg>