<?xml version="1.0" encoding="UTF-8" standalone="no"?>
<!DOCTYPE svg PUBLIC "-//W3C//DTD SVG 20010904//EN"
              "http://www.w3.org/TR/2001/REC-SVG-20010904/DTD/svg10.dtd">

<svg xmlns="http://www.w3.org/2000/svg"
     width="180.6mm" height="180.6mm"
     viewBox="0 0 512 512">
  <path id="Selection"
        fill="none" stroke="black" stroke-width="1"
        d="M 254.00,259.00
           C 254.00,259.00 238.00,284.00 238.00,284.00
             235.71,287.43 232.01,293.74 228.82,296.01
             228.82,296.01 194.00,310.40 194.00,310.40
             189.65,312.14 172.38,319.66 169.00,319.57
             165.62,319.48 161.77,316.51 159.00,314.67
             159.00,314.67 139.00,301.33 139.00,301.33
             139.00,301.33 109.00,281.33 109.00,281.33
             105.70,279.13 95.82,272.89 93.63,270.48
             93.63,270.48 79.25,243.00 79.25,243.00
             76.37,237.26 68.89,224.96 69.48,219.00
             69.48,219.00 77.00,181.00 77.00,181.00
             77.87,176.63 80.40,162.08 81.95,159.00
             83.52,155.86 91.07,147.22 93.75,144.00
             93.75,144.00 117.08,116.00 117.08,116.00
             117.08,116.00 134.59,95.00 134.59,95.00
             136.50,92.71 140.62,87.27 143.09,86.24
             145.72,84.77 150.15,85.94 153.00,86.24
             153.00,86.24 173.00,89.75 173.00,89.75
             173.00,89.75 203.00,94.75 203.00,94.75
             206.03,95.26 214.38,96.43 216.61,97.98
             219.22,99.80 222.68,107.86 224.25,111.00
             224.25,111.00 241.00,146.00 241.00,146.00
             241.00,146.00 208.00,154.37 208.00,154.37
             204.15,155.34 195.54,157.92 192.00,157.59
             192.00,157.59 166.00,149.33 166.00,149.33
             163.34,148.45 157.88,146.06 155.30,147.20
             153.23,148.12 150.53,152.14 149.13,154.00
             149.13,154.00 138.63,168.00 138.63,168.00
             138.63,168.00 124.37,187.00 124.37,187.00
             122.48,189.52 118.68,193.97 118.24,197.00
             117.80,200.00 121.85,210.55 123.00,214.00
             124.26,217.78 128.11,230.34 129.84,232.91
             132.05,236.18 137.61,239.41 141.00,241.67
             141.00,241.67 166.00,257.93 166.00,257.93
             170.20,259.34 174.68,255.21 178.00,253.00
             178.00,253.00 196.00,241.00 196.00,241.00
             198.25,239.50 202.41,236.39 205.00,236.09
             208.30,235.70 216.72,240.61 220.00,242.25
             220.00,242.25 254.00,259.00 254.00,259.00 Z
           M 256.00,135.00
           C 256.00,135.00 325.00,152.13 325.00,152.13
             325.00,152.13 345.00,157.13 345.00,157.13
             348.00,157.88 352.39,158.66 354.79,160.56
             357.26,162.51 360.27,168.12 362.00,171.00
             362.00,171.00 374.00,191.00 374.00,191.00
             374.00,191.00 387.20,213.00 387.20,213.00
             388.97,215.96 391.60,219.37 390.80,223.00
             390.25,225.49 384.10,235.17 382.40,238.00
             382.40,238.00 364.40,268.00 364.40,268.00
             362.22,271.64 355.31,281.02 356.43,285.00
             357.14,287.50 364.72,296.40 366.80,299.00
             366.80,299.00 391.60,330.00 391.60,330.00
             393.89,332.87 402.89,342.91 402.82,346.00
             402.75,348.74 398.84,352.14 397.00,354.00
             397.00,354.00 378.00,373.00 378.00,373.00
             373.82,377.18 358.72,392.89 355.00,395.15
             351.32,397.38 328.81,402.42 323.00,403.87
             323.00,403.87 281.00,414.37 281.00,414.37
             274.19,416.08 262.48,419.46 256.00,420.00
             256.00,420.00 256.00,135.00 256.00,135.00 Z
           M 295.00,183.00
           C 291.51,187.75 293.03,201.73 293.00,208.00
             293.00,208.00 292.00,223.00 292.00,223.00
             292.00,223.00 292.00,247.00 292.00,247.00
             292.00,247.00 311.00,237.00 311.00,237.00
             311.00,237.00 344.00,217.00 344.00,217.00
             344.00,217.00 344.00,215.00 344.00,215.00
             344.00,215.00 295.00,183.00 295.00,183.00 Z
           M 295.00,308.00
           C 291.51,312.75 293.03,326.73 293.00,333.00
             293.00,333.00 292.00,348.00 292.00,348.00
             292.00,348.00 292.00,372.00 292.00,372.00
             292.00,372.00 311.00,362.00 311.00,362.00
             311.00,362.00 344.00,342.00 344.00,342.00
             344.00,342.00 344.00,340.00 344.00,340.00
             344.00,340.00 295.00,308.00 295.00,308.00 Z" />
</svg>
